<svg width="96" height="96" xmlns="http://www.w3.org/2000/svg" xmlns:xlink="http://www.w3.org/1999/xlink" overflow="hidden"><defs><clipPath id="clip0"><rect x="392" y="496" width="96" height="96"/></clipPath></defs><g clip-path="url(#clip0)" transform="translate(-392 -496)"><path d="M472.984 547.3 466.084 535.4 466.084 535C466.503 524.039 460.853 513.737 451.384 508.2 441.917 502.6 430.151 502.6 420.684 508.2 411.197 513.72 405.54 524.033 405.984 535 405.949 544.405 410.315 553.285 417.784 559L417.784 584 449.384 584 449.384 572.1 454.284 572.1C457.443 572.121 460.475 570.858 462.684 568.6 464.872 566.352 466.092 563.337 466.084 560.2L466.084 554.2 470.484 554.2C473.094 554 475.394 551 472.984 547.3ZM433.325 543.454C435.282 543.154 436.302 545.603 435.09 547.24L434.912 547.468C433.623 549.042 430.952 548.712 430.765 546.745 430.654 545.593 429.142 544.408 428.446 545.303L424.012 551 419.947 547.837C419.052 547.137 420.238 545.628 421.389 545.517 423.359 545.329 423.689 542.659 422.112 541.37L421.884 541.192C420.247 539.98 417.8 541 418.1 542.956 418.276 544.099 417.1 545.62 416.206 544.923L412.369 541.937 416.823 536.214C417.523 535.319 415.999 534.144 414.856 534.32 412.9 534.62 411.88 532.17 413.092 530.534L413.269 530.306C414.559 528.732 417.229 529.061 417.417 531.029 417.528 532.18 419.04 533.365 419.736 532.471L424.17 526.771 427.983 529.739C428.878 530.439 427.693 531.947 426.542 532.057 424.571 532.246 424.242 534.916 425.818 536.205L426.046 536.383C427.683 537.595 430.134 536.572 429.833 534.618 429.657 533.475 430.828 531.953 431.727 532.652L435.815 535.833 431.359 541.56C430.662 542.454 432.182 543.63 433.325 543.454ZM448.491 526.888C447.728 527.48 446.728 526.183 446.879 525.209 447.138 523.542 445.001 522.709 443.604 523.739L443.41 523.891C442.064 524.991 442.394 527.227 444.071 527.391 445.052 527.491 446.061 528.777 445.298 529.369L442.024 531.911 438.233 527.028C437.64 526.265 436.349 527.274 436.254 528.255 436.092 529.934 433.854 530.262 432.754 528.916L432.6 528.72C431.571 527.32 432.4 525.187 434.069 525.445 435.044 525.596 436.34 524.596 435.748 523.833L431.974 518.972 435.227 516.446C435.991 515.853 436.991 517.146 436.84 518.124 436.581 519.792 438.718 520.624 440.114 519.594L440.314 519.443C441.659 518.343 441.33 516.106 439.652 515.943 438.671 515.848 437.659 514.56 438.426 513.965L441.914 511.257 445.706 516.14C446.298 516.903 447.589 515.894 447.684 514.913 447.846 513.233 450.084 512.906 451.184 514.252L451.335 514.446C452.365 515.846 451.535 517.979 449.866 517.721 448.892 517.57 447.595 518.57 448.187 519.333L451.959 524.2Z" fill="#EDA2C0"/></g></svg>