<svg width="96" height="96" xmlns="http://www.w3.org/2000/svg" xmlns:xlink="http://www.w3.org/1999/xlink" overflow="hidden"><defs><clipPath id="clip0"><rect x="228" y="408" width="96" height="96"/></clipPath></defs><g clip-path="url(#clip0)" transform="translate(-228 -408)"><path d="M272.9 480.4C272.4 480.4 271.8 480.3 271.4 479.9 270.6 479.2 270.5 477.9 271.2 477.1L275.1 472.6C275.8 471.8 277.1 471.7 277.9 472.4 278.7 473.1 278.8 474.4 278.1 475.2L274.2 479.7C273.9 480.1 273.4 480.3 272.9 480.4Z" fill="#143642"/><path d="M266.8 478.1C266.1 478.2 265.5 478 264.9 477.5 263.9 476.6 263.8 475 264.7 474L269.3 468.7C270.2 467.7 271.8 467.6 272.8 468.5 273.8 469.4 273.9 471 273 472L268.4 477.3C268 477.8 267.4 478.1 266.8 478.1Z" fill="#143642"/><path d="M260.5 474.4C259.7 474.5 258.9 474.2 258.3 473.7 257.1 472.6 256.9 470.7 258 469.5L262.6 464.2C263.7 463 265.6 462.8 266.8 463.9 268 465 268.2 466.9 267.1 468.1L262.5 473.4C262 474 261.2 474.4 260.5 474.4Z" fill="#143642"/><path d="M253.2 470.7C252.4 470.8 251.6 470.5 251 470 249.8 468.9 249.6 467 250.7 465.8L256 459.8C257.1 458.6 259 458.4 260.2 459.5 261.4 460.6 261.6 462.5 260.5 463.7L255.2 469.7C254.6 470.3 253.9 470.6 253.2 470.7Z" fill="#143642"/><path d="M232.6 448.7 240.3 453.4C241.2 454 242.5 453.7 243 452.7L252.3 437.3C252.9 436.4 252.6 435.1 251.6 434.6L244 429.9 232.6 448.7Z" fill="#143642"/><path d="M297.4 461.8 281.3 448 280.2 447 273.3 454.9C272.3 456.1 270.9 456.8 269.3 456.9 269.1 456.9 268.9 456.9 268.8 456.9 267.3 456.9 265.9 456.4 264.9 455.4 262.4 453.2 262.2 449.4 264.3 446.9L270.2 440.1C265.6 439.5 259.7 441.9 253.6 438.9L244.9 453.3 251.7 461.2 254.3 458.2C255.2 457.1 256.6 456.5 258.1 456.5L258.1 456.5C259.3 456.5 260.5 456.9 261.4 457.7 262.5 458.6 263 459.9 263.1 461.3 263.6 461.1 264.2 461 264.8 461 266 461 267.2 461.4 268.1 462.2 269.2 463.2 269.8 464.5 269.8 465.9 270.2 465.8 270.7 465.7 271.1 465.7L271.1 465.7C272.2 465.7 273.2 466.1 274.1 466.8 275 467.6 275.5 468.7 275.6 469.9 275.9 469.8 276.3 469.7 276.7 469.7L276.7 469.7C277.7 469.7 278.6 470 279.3 470.7 280.1 471.4 280.6 472.4 280.7 473.4 280.8 474.5 280.4 475.5 279.7 476.3L276.3 480.2 277.7 481.3C278.4 481.7 279.2 482 280.1 481.9 282.3 481.7 283.9 479.8 283.7 477.6 283.7 477.6 283.7 477.5 283.7 477.5 284 477.6 284.4 477.6 284.7 477.6 286.9 477.4 288.5 475.5 288.3 473.3 288.3 473.3 288.3 473.2 288.3 473.2 288.6 473.3 289 473.3 289.3 473.3 291.5 473.1 293.1 471.2 292.9 469 292.9 468.8 292.8 468.6 292.8 468.4 293.4 468.7 294.1 468.9 294.9 468.8 297.1 468.6 298.7 466.7 298.5 464.5 298.6 463.4 298.1 462.5 297.4 461.8Z" fill="#143642"/><path d="M319.4 448.7 311.7 453.4C310.8 454 309.5 453.7 309 452.7L299.7 437.3C299.1 436.4 299.4 435.1 300.4 434.6L308.1 429.9 319.4 448.7Z" fill="#143642"/><path d="M298.5 439.3C290.2 442.3 284.2 439.4 277.5 438.1 277.4 438.1 277 438 277 438 275.8 437.9 274.5 438.3 273.6 439.3L265.7 448.3C264.2 450 264.4 452.5 266.1 453.9 267 454.6 268 455 269.1 454.9 270.1 454.8 271.1 454.4 271.8 453.5 271.8 453.5 280 444.1 280 444.1L298.7 460.2 298.7 460.2 298.7 460.2C299.2 460.7 299.4 460.9 299.8 461.5L307 453.2 298.5 439.3Z" fill="#143642"/></g></svg>