<svg width="96" height="96" xmlns="http://www.w3.org/2000/svg" xmlns:xlink="http://www.w3.org/1999/xlink" overflow="hidden"><defs><clipPath id="clip0"><rect x="268" y="544" width="96" height="96"/></clipPath></defs><g clip-path="url(#clip0)" transform="translate(-268 -544)"><path d="M296.9 581 347 581 347 576C347 573.8 345.2 572 343 572L313 572 302 564.7C301.3 564.3 300.6 564 299.8 564L281 564C278.8 564 277 565.8 277 568L277 617C277 617.2 289.9 585.7 289.9 585.7 291.1 582.9 293.8 581 296.9 581Z" fill="#EDA2C0"/><path d="M355 589C355 586.9 353.5 585.2 351.4 585L296.9 585C295.4 585 294.1 585.9 293.5 587.2L280 620 341 620 354.6 590.8C354.9 590.2 355 589.6 355 589L355 589Z" fill="#EDA2C0"/></g></svg>